<svg clip-rule="evenodd" fill-rule="evenodd" stroke-linejoin="round" stroke-miterlimit="2" viewBox="0 0 1600 1600" xmlns="http://www.w3.org/2000/svg"><style>path{fill:#000000!important}</style><rect width="1600" height="1600" fill="#9580c8"/><path d="m526.684 633.879c-7.508 5.224-10.67 13.467-8.464 22.048l45.927 178.318-42.532-30.187c-8.317-5.895-19.951-7.315-29.656-3.577-9.194 3.528-14.766 10.855-14.92 19.608l-1.584 93.492-222.223-26.72c-11.224-1.334-23.697 3.559-29.591 11.673-5.009 6.902-4.571 14.813 1.213 21.698l126.994 151.167-98.404 59.359c-8.917 5.379-13.437 14.642-11.517 23.592 1.768 8.206 8.691 14.444 18.527 16.694l306.322 69.895-36.025 75.163c-3.439 7.167-1.49 15.096 5.222 21.206 7.266 6.62 17.964 9.3 27.254 6.847l153.635-40.611c-9.698 43.722-29.007 82.698-57.487 116.008-37.858 44.281-95.542 79.49-166.824 101.827-108.454 33.979-225.349 33.887-338.359 33.942l-101.055-.006v-1469.64c0-6.528.19-13.136.379-19.768.198-7.026.402-14.236.38-21.434h461.213v490.487c0 12.054 12.1 22.239 26.421 22.239h171.22c2.454 0 4.93.024 7.413.049 4.513.049 9.114.098 13.736 0l-53.646 118.104-124.066-44.552c-10.195-3.669-21.5-2.489-29.503 3.08m537.351 703.423c6.711-6.11 8.661-14.033 5.214-21.2l-36.032-75.163 306.329-69.895c9.851-2.25 16.789-8.488 18.549-16.688 1.92-8.95-2.615-18.213-11.539-23.598l-98.404-59.359 126.987-151.167c5.813-6.909 6.266-14.832 1.256-21.729-5.886-8.102-18.308-12.976-29.634-11.642l-222.216 26.726-1.592-93.498c-.146-8.759-5.718-16.093-14.897-19.621-9.698-3.719-21.346-2.311-29.671 3.59l-42.539 30.187 45.934-178.318c2.206-8.593-.942-16.836-8.442-22.048-8.011-5.569-19.323-6.749-29.525-3.08l-124.066 44.552-53.726-118.288q3.332.136 6.74.135h185.709c14.321 0 26.421-10.185 26.421-22.239v-490.487h461.972v1469.64c0 6.528-.182 13.124-.372 19.75-.205 7.038-.402 14.254-.38 21.458l-48.14.013c-43.509.018-86.997.036-130.471-.019-195.531-.233-330.602-39.776-412.956-120.876-35.564-35.03-60.101-80.092-71.391-130.895l153.628 40.605c9.311 2.477 19.987-.221 27.254-6.847m535.664-1312.67.007-2.397c0-12.054-12.101-22.239-26.421-22.239h-514.815c-14.321 0-26.421 10.185-26.421 22.239v490.487h-144.807c-2.746 0-5.667.086-8.675.184-8.501.283-18.104.59-24.706-1.585-5.265-1.74-9.53-5.078-13.378-10.481l-13.605-29.953c-.782-7.745-7.215-14.31-16.818-17.051a29.9 29.9 0 0 0 -20.112 0c-9.625 2.729-16.052 9.3-16.826 17.063l-12.831 28.245c-5.849 8.796-12.677 12.976-22.091 13.541-6.236.375-12.568.264-19.271.148-3.243-.056-6.478-.111-9.684-.111h-141.301v-490.487c0-12.054-12.101-22.239-26.414-22.239h-514.815c-14.32 0-26.421 10.185-26.421 22.239v1491.87c0 6.731-.073 13.462-.146 20.199-.146 13.381-.3 27.205.153 40.839v1.469l-.007.934c0 12.054 12.101 22.239 26.421 22.239 23.457 0 46.92.055 70.377.117 23.135.061 46.643.123 70.267.123 25.742 0 51.623-.074 77.278-.295 207.763-1.807 357.667-49.328 445.541-141.228 48.468-50.693 76.992-113.273 84.792-186.013.708-6.664-2.739-13.099-9.457-17.66-7.04-4.77-16.322-6.43-24.245-4.352l-140.082 37.034 26.283-54.829c2.395-4.997 1.993-10.665-1.132-15.957-3.491-5.907-10.027-10.578-17.045-12.183l-281.316-64.19 74.502-44.933c11.115-6.719 17.308-19.99 8.413-30.587l-106.839-127.182 191.427 23.019c8.895 1.076 17.527-.842 23.639-5.237 5.528-3.977 8.632-9.761 8.749-16.282l1.212-71.77 59.116 41.958c9.289 6.589 21.806 7.554 31.891 2.452 9.851-4.997 14.386-14.236 11.845-24.12l-51.536-200.089 102.326 36.752c7.99 2.87 15.869 3.079 22.778.608 6.733-2.403 11.859-7.118 14.824-13.652l79.681-175.398 79.673 175.398c2.965 6.528 8.084 11.249 14.817 13.652 6.923 2.471 14.81 2.262 22.785-.608l102.318-36.752-51.528 200.096c-2.505 9.73 2.154 19.196 11.867 24.12 10.078 5.089 22.588 4.13 31.869-2.459l59.109-41.958 1.227 71.763c.109 6.528 3.213 12.306 8.734 16.289 6.119 4.395 14.708 6.301 23.646 5.237l191.427-23.019-106.846 127.182c-8.771 10.456-2.461 24.01 8.427 30.587l74.503 44.933-281.324 64.19c-7.04 1.605-13.576 6.27-17.06 12.165-3.125 5.292-3.527 10.959-1.117 15.975l26.283 54.829-140.082-37.028c-7.923-2.108-17.212-.424-24.252 4.352-6.719 4.555-10.158 10.99-9.45 17.654 6.967 64.965 29.832 121.22 67.96 167.216 42.786 51.614 103.983 91.482 181.875 118.503 119.838 41.577 248.103 41.577 372.148 41.577h126.272c14.32 0 26.421-10.185 26.421-22.239v-1491.88c0-6.725.073-13.462.146-20.199.146-13.375.3-27.205-.153-40.839" fill-rule="nonzero"/></svg>